<svg xmlns="http://www.w3.org/2000/svg" viewBox="0 0 100 100">
  <defs>
    <linearGradient id="grad" x1="0%" y1="0%" x2="100%" y2="100%">
      <stop offset="0%" style="stop-color:#0ea5e9"/>
      <stop offset="100%" style="stop-color:#d946ef"/>
    </linearGradient>
  </defs>
  <rect width="100" height="100" rx="20" fill="url(#grad)"/>
  <path d="M50 15c-19.33 0-35 15.67-35 35 0 19.33 15.67 35 35 35s35-15.67 35-35c0-19.33-15.67-35-35-35zm0 60c-13.81 0-25-11.19-25-25s11.19-25 25-25 25 11.19 25 25-11.19 25-25 25z" fill="white" opacity="0.3"/>
  <path d="M45 50l5 5 15-15" stroke="white" stroke-width="6" stroke-linecap="round" stroke-linejoin="round" fill="none"/>
  <path d="M50 25v-5M75 50h5M50 75v5M25 50h-5" stroke="white" stroke-width="3" stroke-linecap="round" opacity="0.5"/>
</svg>
